<svg xmlns="http://www.w3.org/2000/svg" width="296.6" height="35.75" viewBox="0 0 296.6 35.75">
  <path id="パス_3511" data-name="パス 3511" d="M-140.9-22.3h-7.4l5.4-12.6h4.85Zm10.1,0h-7.4l5.4-12.6h4.85Zm6.55,4.8a18.281,18.281,0,0,1,2.325-9.225,16.6,16.6,0,0,1,6.35-6.35,18.018,18.018,0,0,1,9.025-2.275,17.753,17.753,0,0,1,10.25,3,15.686,15.686,0,0,1,6.15,8.3H-98.2a8.342,8.342,0,0,0-3.375-3.75,9.9,9.9,0,0,0-5.025-1.25,10.338,10.338,0,0,0-5.425,1.425,9.724,9.724,0,0,0-3.7,4.025,13.269,13.269,0,0,0-1.325,6.1,13.308,13.308,0,0,0,1.325,6.075,9.691,9.691,0,0,0,3.7,4.05A10.338,10.338,0,0,0-106.6-5.95a9.751,9.751,0,0,0,5.025-1.275A8.495,8.495,0,0,0-98.2-11h8.05a15.6,15.6,0,0,1-6.125,8.325A17.829,17.829,0,0,1-106.55.3a18.018,18.018,0,0,1-9.025-2.275,16.652,16.652,0,0,1-6.35-6.325A18.144,18.144,0,0,1-124.25-17.5ZM-55.2-34.9V0h-7V-14.85H-77.15V0h-7V-34.9h7v14.35H-62.2V-34.9ZM-30.3,0-38-13.6h-3.3V0h-7V-34.9h13.1a15.3,15.3,0,0,1,6.9,1.425,9.955,9.955,0,0,1,4.275,3.85A10.507,10.507,0,0,1-22.6-24.2a10.391,10.391,0,0,1-2,6.225,10.274,10.274,0,0,1-5.95,3.825L-22.2,0Zm-11-18.85h5.85a5.845,5.845,0,0,0,4.25-1.375,5.117,5.117,0,0,0,1.4-3.825,4.882,4.882,0,0,0-1.4-3.725A5.986,5.986,0,0,0-35.45-29.1H-41.3ZM-.05.35a18.082,18.082,0,0,1-9-2.3,17.171,17.171,0,0,1-6.5-6.375,17.833,17.833,0,0,1-2.4-9.225,17.738,17.738,0,0,1,2.4-9.175A17.171,17.171,0,0,1-9.05-33.1a18.082,18.082,0,0,1,9-2.3,18.041,18.041,0,0,1,9.025,2.3,17.04,17.04,0,0,1,6.45,6.375A17.882,17.882,0,0,1,17.8-17.55a17.979,17.979,0,0,1-2.375,9.225A16.989,16.989,0,0,1,8.95-1.95,18.082,18.082,0,0,1-.05.35Zm0-6.25A10.663,10.663,0,0,0,5.5-7.325,9.769,9.769,0,0,0,9.25-11.4a13.371,13.371,0,0,0,1.35-6.15,13.217,13.217,0,0,0-1.35-6.125A9.636,9.636,0,0,0,5.5-27.7,10.812,10.812,0,0,0-.05-29.1a10.948,10.948,0,0,0-5.575,1.4A9.587,9.587,0,0,0-9.4-23.675a13.217,13.217,0,0,0-1.35,6.125A13.371,13.371,0,0,0-9.4-11.4,9.718,9.718,0,0,0-5.625-7.325,10.8,10.8,0,0,0-.05-5.9ZM52.85,0h-7L30-23.95V0H23V-34.95h7l15.85,24v-24h7Zm23.1.35a18.082,18.082,0,0,1-9-2.3,17.171,17.171,0,0,1-6.5-6.375,17.833,17.833,0,0,1-2.4-9.225,17.738,17.738,0,0,1,2.4-9.175,17.171,17.171,0,0,1,6.5-6.375,18.082,18.082,0,0,1,9-2.3,18.041,18.041,0,0,1,9.025,2.3,17.04,17.04,0,0,1,6.45,6.375A17.882,17.882,0,0,1,93.8-17.55a17.979,17.979,0,0,1-2.375,9.225A16.989,16.989,0,0,1,84.95-1.95,18.082,18.082,0,0,1,75.95.35Zm0-6.25A10.663,10.663,0,0,0,81.5-7.325,9.769,9.769,0,0,0,85.25-11.4a13.371,13.371,0,0,0,1.35-6.15,13.217,13.217,0,0,0-1.35-6.125A9.636,9.636,0,0,0,81.5-27.7a10.812,10.812,0,0,0-5.55-1.4,10.948,10.948,0,0,0-5.575,1.4A9.587,9.587,0,0,0,66.6-23.675a13.217,13.217,0,0,0-1.35,6.125A13.371,13.371,0,0,0,66.6-11.4a9.718,9.718,0,0,0,3.775,4.075A10.8,10.8,0,0,0,75.95-5.9ZM111.05.35A16.577,16.577,0,0,1,104.475-.9,10.8,10.8,0,0,1,99.85-4.5a9.479,9.479,0,0,1-1.75-5.55h7.5a4.85,4.85,0,0,0,1.525,3.4A5.4,5.4,0,0,0,110.9-5.4a5.807,5.807,0,0,0,3.85-1.175,3.821,3.821,0,0,0,1.4-3.075,3.553,3.553,0,0,0-.95-2.55,6.656,6.656,0,0,0-2.375-1.575A39.3,39.3,0,0,0,108.9-15.05a42.036,42.036,0,0,1-5.525-1.975,9.677,9.677,0,0,1-3.65-2.95A8.407,8.407,0,0,1,98.2-25.25a9.431,9.431,0,0,1,1.55-5.4,9.859,9.859,0,0,1,4.35-3.525,15.826,15.826,0,0,1,6.4-1.225,13.885,13.885,0,0,1,8.775,2.625A9.732,9.732,0,0,1,123-25.45h-7.7a4,4,0,0,0-1.525-2.975A5.746,5.746,0,0,0,110-29.6a4.861,4.861,0,0,0-3.275,1.05A3.8,3.8,0,0,0,105.5-25.5a3.153,3.153,0,0,0,.925,2.325,7.054,7.054,0,0,0,2.3,1.5q1.375.575,3.875,1.325a40.709,40.709,0,0,1,5.55,2,9.967,9.967,0,0,1,3.7,3,8.333,8.333,0,0,1,1.55,5.25,9.875,9.875,0,0,1-1.45,5.2,10.236,10.236,0,0,1-4.25,3.825A14.5,14.5,0,0,1,111.05.35Zm19.8-35.25h7.35l-5.4,12.6H128Zm10.1,0h7.35l-5.4,12.6h-4.8Z" transform="translate(148.3 35.4)" fill="#111"/>
</svg>
