<svg xmlns="http://www.w3.org/2000/svg" width="150" height="24" viewBox="0 0 150 24">
  <g id="グループ_4009" data-name="グループ 4009" transform="translate(-270 -24.5)">
    <path id="パス_3497" data-name="パス 3497" d="M-63.048,0l-2.56-4.448H-67V0h-1.824V-11.12h3.84a4.775,4.775,0,0,1,2.168.448,3.108,3.108,0,0,1,1.328,1.2,3.265,3.265,0,0,1,.44,1.68,3.329,3.329,0,0,1-.632,1.976,3.208,3.208,0,0,1-1.944,1.208L-60.872,0ZM-67-5.9h2.016a2.115,2.115,0,0,0,1.544-.512,1.843,1.843,0,0,0,.52-1.376,1.779,1.779,0,0,0-.512-1.352,2.175,2.175,0,0,0-1.552-.488H-67Zm10.912-3.744v3.264h3.84V-4.9h-3.84v3.408h4.32V0h-6.144V-11.136h6.144v1.488Zm6.752,4.064a5.679,5.679,0,0,1,.76-2.928,5.411,5.411,0,0,1,2.064-2.024,5.76,5.76,0,0,1,2.856-.728,5.8,5.8,0,0,1,3.16.872A4.965,4.965,0,0,1-38.488-7.92H-40.68a2.939,2.939,0,0,0-1.2-1.312,3.561,3.561,0,0,0-1.776-.432,3.881,3.881,0,0,0-1.968.5,3.452,3.452,0,0,0-1.352,1.424,4.575,4.575,0,0,0-.488,2.16,4.575,4.575,0,0,0,.488,2.16,3.506,3.506,0,0,0,1.352,1.432,3.833,3.833,0,0,0,1.968.5A3.561,3.561,0,0,0-41.88-1.92a2.939,2.939,0,0,0,1.2-1.312h2.192A4.923,4.923,0,0,1-40.5-.768,5.842,5.842,0,0,1-43.656.1,5.747,5.747,0,0,1-46.52-.632a5.428,5.428,0,0,1-2.056-2.024A5.679,5.679,0,0,1-49.336-5.584ZM-29.784,0l-2.56-4.448h-1.392V0H-35.56V-11.12h3.84a4.775,4.775,0,0,1,2.168.448,3.108,3.108,0,0,1,1.328,1.2,3.265,3.265,0,0,1,.44,1.68,3.329,3.329,0,0,1-.632,1.976A3.208,3.208,0,0,1-30.36-4.608L-27.608,0Zm-3.952-5.9h2.016a2.115,2.115,0,0,0,1.544-.512,1.843,1.843,0,0,0,.52-1.376,1.779,1.779,0,0,0-.512-1.352,2.175,2.175,0,0,0-1.552-.488h-2.016Zm10.9-5.216v7.088a2.527,2.527,0,0,0,.664,1.9,2.553,2.553,0,0,0,1.848.64,2.576,2.576,0,0,0,1.864-.64,2.527,2.527,0,0,0,.664-1.9V-11.12h1.824v7.056a4.253,4.253,0,0,1-.592,2.3A3.674,3.674,0,0,1-18.152-.352a5.11,5.11,0,0,1-2.192.464,5.057,5.057,0,0,1-2.184-.464,3.585,3.585,0,0,1-1.56-1.408,4.345,4.345,0,0,1-.576-2.3V-11.12Zm11.856,0V0h-1.824V-11.12Zm10.384,0v1.488H-3.56V0H-5.384V-9.632H-8.36V-11.12Zm4.464,0V0H2.04V-11.12ZM16.2,0H14.376L8.888-8.3V0H7.064V-11.136H8.888l5.488,8.288v-8.288H16.2ZM27.448-7.92a2.94,2.94,0,0,0-1.2-1.256A3.615,3.615,0,0,0,24.472-9.6a3.881,3.881,0,0,0-1.968.5A3.476,3.476,0,0,0,21.152-7.7a4.409,4.409,0,0,0-.488,2.112,4.457,4.457,0,0,0,.488,2.12A3.464,3.464,0,0,0,22.5-2.048a3.881,3.881,0,0,0,1.968.5,3.482,3.482,0,0,0,2.416-.832A3.616,3.616,0,0,0,28.024-4.64H23.848V-6.1h6.128v1.424a5.474,5.474,0,0,1-.92,2.384A5.473,5.473,0,0,1,27.12-.552,5.453,5.453,0,0,1,24.472.1a5.747,5.747,0,0,1-2.864-.728,5.428,5.428,0,0,1-2.056-2.024,5.679,5.679,0,0,1-.76-2.928,5.679,5.679,0,0,1,.76-2.928,5.411,5.411,0,0,1,2.064-2.024,5.76,5.76,0,0,1,2.856-.728,5.8,5.8,0,0,1,3.16.872A4.965,4.965,0,0,1,29.64-7.92ZM41.192.112A4.98,4.98,0,0,1,39.176-.28a3.308,3.308,0,0,1-1.408-1.112,2.824,2.824,0,0,1-.512-1.68h1.952a1.762,1.762,0,0,0,.568,1.184,2.014,2.014,0,0,0,1.416.464,2.181,2.181,0,0,0,1.472-.456,1.482,1.482,0,0,0,.528-1.176,1.284,1.284,0,0,0-.328-.912,2.194,2.194,0,0,0-.816-.544A12.305,12.305,0,0,0,40.7-4.928a12.668,12.668,0,0,1-1.768-.584,2.922,2.922,0,0,1-1.16-.92,2.659,2.659,0,0,1-.48-1.664,2.958,2.958,0,0,1,.48-1.68,3.066,3.066,0,0,1,1.344-1.1,4.883,4.883,0,0,1,2-.384,4.168,4.168,0,0,1,2.648.808A2.981,2.981,0,0,1,44.9-8.24H42.888a1.461,1.461,0,0,0-.576-1.04,2.129,2.129,0,0,0-1.392-.432,1.975,1.975,0,0,0-1.28.4,1.394,1.394,0,0,0-.5,1.152,1.169,1.169,0,0,0,.312.84,2.2,2.2,0,0,0,.792.52,12.3,12.3,0,0,0,1.312.416,13.7,13.7,0,0,1,1.8.608,3,3,0,0,1,1.184.936,2.69,2.69,0,0,1,.488,1.688,3.035,3.035,0,0,1-.456,1.6A3.29,3.29,0,0,1,43.248-.344,4.379,4.379,0,0,1,41.192.112ZM49.816-11.12V0H47.992V-11.12Zm10.384,0v1.488H57.24V0H55.416V-9.632H52.44V-11.12Zm4.464,1.472v3.264H68.5V-4.9h-3.84v3.408h4.32V0H62.84V-11.136h6.144v1.488Z" transform="translate(345 42)" fill="#111"/>
    <path id="長方形_4067" data-name="長方形 4067" d="M1,1V12H148V1H1M0,0H149V13H0Z" transform="translate(271 30)" fill="rgba(0,0,0,0)"/>
    <path id="パス_3478" data-name="パス 3478" d="M420,54.5H270v-1H420Z" transform="translate(0 -6)" fill="#111"/>
    <path id="パス_3479" data-name="パス 3479" d="M420,54.5H270v-1H420Z" transform="translate(0 -29)" fill="#111"/>
  </g>
</svg>
